<mxfile host="app.diagrams.net" agent="Mozilla/5.0 (Windows NT 10.0; Win64; x64) AppleWebKit/537.36 (KHTML, like Gecko) Chrome/133.0.0.0 Safari/537.36" version="25.0.3">
  <diagram name="Page-1" id="5d7acffa-a066-3a61-03fe-96351882024d">
    <mxGraphModel dx="1105" dy="1634" grid="1" gridSize="10" guides="1" tooltips="1" connect="1" arrows="1" fold="1" page="1" pageScale="1" pageWidth="827" pageHeight="1169" background="#ffffff" math="0" shadow="0">
      <root>
        <mxCell id="0" />
        <mxCell id="1" parent="0" />
        <mxCell id="21ea969265ad0168-6" value="Relacionamento" style="swimlane;html=1;fontStyle=0;childLayout=stackLayout;horizontal=1;startSize=26;fillColor=#757575;horizontalStack=0;resizeParent=1;resizeLast=0;collapsible=0;marginBottom=0;swimlaneFillColor=default;align=center;rounded=1;shadow=0;comic=0;labelBackgroundColor=none;strokeWidth=1;fontFamily=Verdana;fontSize=12;swimlaneLine=1;arcSize=15;" parent="1" vertex="1">
          <mxGeometry x="30" y="-1052" width="160" height="60" as="geometry">
            <mxRectangle x="100" y="-737" width="140" height="30" as="alternateBounds" />
          </mxGeometry>
        </mxCell>
        <mxCell id="21ea969265ad0168-7" value="INOVA-1" style="text;html=1;strokeColor=none;fillColor=none;spacingLeft=4;spacingRight=4;whiteSpace=wrap;overflow=hidden;rotatable=0;points=[[0,0.5],[1,0.5]];portConstraint=eastwest;align=center;" parent="21ea969265ad0168-6" vertex="1">
          <mxGeometry y="26" width="160" height="26" as="geometry" />
        </mxCell>
        <mxCell id="HDJxrZw4YMF6eCiUrIUL-1" value="&lt;div style=&quot;text-align: left;&quot;&gt;&lt;span data-darkreader-inline-color=&quot;&quot; data-darkreader-inline-bgcolor=&quot;&quot; style=&quot;background-color: initial; color: rgb(0, 0, 0); --darkreader-inline-bgcolor: initial; --darkreader-inline-color: var(--darkreader-text-000000, #e8e6e3); font-weight: normal;&quot;&gt;&lt;font style=&quot;font-size: 12px;&quot;&gt;Cenário Mínimo&lt;/font&gt;&lt;/span&gt;&lt;/div&gt;&lt;div&gt;&lt;div&gt;iNova - Sem Ordem de Execução&lt;/div&gt;&lt;/div&gt;" style="text;html=1;align=center;verticalAlign=middle;resizable=0;points=[];autosize=1;strokeColor=none;fillColor=none;fontFamily=Verdana;fontStyle=1;fontSize=18;" vertex="1" parent="1">
          <mxGeometry x="20" y="-1159" width="320" height="60" as="geometry" />
        </mxCell>
        <mxCell id="HDJxrZw4YMF6eCiUrIUL-4" value="Faturamento" style="swimlane;html=1;fontStyle=0;childLayout=stackLayout;horizontal=1;startSize=26;fillColor=#e0e0e0;horizontalStack=0;resizeParent=1;resizeLast=0;collapsible=0;marginBottom=0;swimlaneFillColor=#ffffff;align=center;rounded=1;shadow=0;comic=0;labelBackgroundColor=none;strokeWidth=1;fontFamily=Verdana;fontSize=12;arcSize=15;" vertex="1" parent="1">
          <mxGeometry x="230" y="-1052" width="160" height="60" as="geometry" />
        </mxCell>
        <mxCell id="HDJxrZw4YMF6eCiUrIUL-5" value="INOVA-2" style="text;html=1;strokeColor=none;fillColor=none;spacingLeft=4;spacingRight=4;whiteSpace=wrap;overflow=hidden;rotatable=0;points=[[0,0.5],[1,0.5]];portConstraint=eastwest;align=center;" vertex="1" parent="HDJxrZw4YMF6eCiUrIUL-4">
          <mxGeometry y="26" width="160" height="26" as="geometry" />
        </mxCell>
        <mxCell id="HDJxrZw4YMF6eCiUrIUL-6" value="Faturamento" style="swimlane;html=1;fontStyle=0;childLayout=stackLayout;horizontal=1;startSize=26;fillColor=#e0e0e0;horizontalStack=0;resizeParent=1;resizeLast=0;collapsible=0;marginBottom=0;swimlaneFillColor=#ffffff;align=center;rounded=1;shadow=0;comic=0;labelBackgroundColor=none;strokeWidth=1;fontFamily=Verdana;fontSize=12" vertex="1" parent="1">
          <mxGeometry x="630" y="-852" width="160" height="60" as="geometry" />
        </mxCell>
        <mxCell id="HDJxrZw4YMF6eCiUrIUL-7" value="INOVA-23" style="text;html=1;strokeColor=none;fillColor=none;spacingLeft=4;spacingRight=4;whiteSpace=wrap;overflow=hidden;rotatable=0;points=[[0,0.5],[1,0.5]];portConstraint=eastwest;align=center;" vertex="1" parent="HDJxrZw4YMF6eCiUrIUL-6">
          <mxGeometry y="26" width="160" height="26" as="geometry" />
        </mxCell>
        <mxCell id="HDJxrZw4YMF6eCiUrIUL-8" value="Relacionamento" style="swimlane;html=1;fontStyle=0;childLayout=stackLayout;horizontal=1;startSize=26;fillColor=#757575;horizontalStack=0;resizeParent=1;resizeLast=0;collapsible=0;marginBottom=0;swimlaneFillColor=#ffffff;align=center;rounded=1;shadow=0;comic=0;labelBackgroundColor=none;strokeWidth=1;fontFamily=Verdana;fontSize=12;arcSize=15;" vertex="1" parent="1">
          <mxGeometry x="630" y="-1052" width="160" height="60" as="geometry" />
        </mxCell>
        <mxCell id="HDJxrZw4YMF6eCiUrIUL-9" value="INOVA-4" style="text;html=1;strokeColor=none;fillColor=none;spacingLeft=4;spacingRight=4;whiteSpace=wrap;overflow=hidden;rotatable=0;points=[[0,0.5],[1,0.5]];portConstraint=eastwest;align=center;" vertex="1" parent="HDJxrZw4YMF6eCiUrIUL-8">
          <mxGeometry y="26" width="160" height="26" as="geometry" />
        </mxCell>
        <mxCell id="HDJxrZw4YMF6eCiUrIUL-10" value="Relacionamento" style="swimlane;html=1;fontStyle=0;childLayout=stackLayout;horizontal=1;startSize=26;fillColor=#757575;horizontalStack=0;resizeParent=1;resizeLast=0;collapsible=0;marginBottom=0;swimlaneFillColor=#ffffff;align=center;rounded=1;shadow=0;comic=0;labelBackgroundColor=none;strokeWidth=1;fontFamily=Verdana;fontSize=12;arcSize=15;" vertex="1" parent="1">
          <mxGeometry x="430" y="-1052" width="160" height="60" as="geometry" />
        </mxCell>
        <mxCell id="HDJxrZw4YMF6eCiUrIUL-11" value="INOVA-3" style="text;html=1;strokeColor=none;fillColor=none;spacingLeft=4;spacingRight=4;whiteSpace=wrap;overflow=hidden;rotatable=0;points=[[0,0.5],[1,0.5]];portConstraint=eastwest;align=center;collapsible=0;" vertex="1" parent="HDJxrZw4YMF6eCiUrIUL-10">
          <mxGeometry y="26" width="160" height="26" as="geometry" />
        </mxCell>
        <mxCell id="HDJxrZw4YMF6eCiUrIUL-12" value="Faturamento" style="swimlane;html=1;fontStyle=0;childLayout=stackLayout;horizontal=1;startSize=26;fillColor=#e0e0e0;horizontalStack=0;resizeParent=1;resizeLast=0;collapsible=0;marginBottom=0;swimlaneFillColor=#ffffff;align=center;rounded=1;shadow=0;comic=0;labelBackgroundColor=none;strokeWidth=1;fontFamily=Verdana;fontSize=12;arcSize=15;" vertex="1" parent="1">
          <mxGeometry x="31" y="-952" width="160" height="60" as="geometry" />
        </mxCell>
        <mxCell id="HDJxrZw4YMF6eCiUrIUL-13" value="INOVA-9" style="text;html=1;strokeColor=none;fillColor=none;spacingLeft=4;spacingRight=4;whiteSpace=wrap;overflow=hidden;rotatable=0;points=[[0,0.5],[1,0.5]];portConstraint=eastwest;align=center;" vertex="1" parent="HDJxrZw4YMF6eCiUrIUL-12">
          <mxGeometry y="26" width="160" height="26" as="geometry" />
        </mxCell>
        <mxCell id="HDJxrZw4YMF6eCiUrIUL-16" value="Faturamento" style="swimlane;html=1;fontStyle=0;childLayout=stackLayout;horizontal=1;startSize=26;fillColor=#e0e0e0;horizontalStack=0;resizeParent=1;resizeLast=0;collapsible=0;marginBottom=0;swimlaneFillColor=#ffffff;align=center;rounded=1;shadow=0;comic=0;labelBackgroundColor=none;strokeWidth=1;fontFamily=Verdana;fontSize=12;arcSize=15;" vertex="1" parent="1">
          <mxGeometry x="630" y="-952" width="160" height="60" as="geometry" />
        </mxCell>
        <mxCell id="HDJxrZw4YMF6eCiUrIUL-17" value="INOVA-18" style="text;html=1;strokeColor=none;fillColor=none;spacingLeft=4;spacingRight=4;whiteSpace=wrap;overflow=hidden;rotatable=0;points=[[0,0.5],[1,0.5]];portConstraint=eastwest;align=center;" vertex="1" parent="HDJxrZw4YMF6eCiUrIUL-16">
          <mxGeometry y="26" width="160" height="26" as="geometry" />
        </mxCell>
        <mxCell id="HDJxrZw4YMF6eCiUrIUL-18" value="Faturamento" style="swimlane;html=1;fontStyle=0;childLayout=stackLayout;horizontal=1;startSize=26;fillColor=#e0e0e0;horizontalStack=0;resizeParent=1;resizeLast=0;collapsible=0;marginBottom=0;swimlaneFillColor=#ffffff;align=center;rounded=1;shadow=0;comic=0;labelBackgroundColor=none;strokeWidth=1;fontFamily=Verdana;fontSize=12;arcSize=15;" vertex="1" parent="1">
          <mxGeometry x="430" y="-952" width="160" height="60" as="geometry" />
        </mxCell>
        <mxCell id="HDJxrZw4YMF6eCiUrIUL-19" value="INOVA-17" style="text;html=1;strokeColor=none;fillColor=none;spacingLeft=4;spacingRight=4;whiteSpace=wrap;overflow=hidden;rotatable=0;points=[[0,0.5],[1,0.5]];portConstraint=eastwest;align=center;" vertex="1" parent="HDJxrZw4YMF6eCiUrIUL-18">
          <mxGeometry y="26" width="160" height="26" as="geometry" />
        </mxCell>
        <mxCell id="HDJxrZw4YMF6eCiUrIUL-20" value="Faturamento" style="swimlane;html=1;fontStyle=0;childLayout=stackLayout;horizontal=1;startSize=26;fillColor=#e0e0e0;horizontalStack=0;resizeParent=1;resizeLast=0;collapsible=0;marginBottom=0;swimlaneFillColor=#ffffff;align=center;rounded=1;shadow=0;comic=0;labelBackgroundColor=none;strokeWidth=1;fontFamily=Verdana;fontSize=12;arcSize=15;" vertex="1" parent="1">
          <mxGeometry x="230" y="-952" width="160" height="60" as="geometry" />
        </mxCell>
        <mxCell id="HDJxrZw4YMF6eCiUrIUL-21" value="INOVA-15" style="text;html=1;strokeColor=none;fillColor=none;spacingLeft=4;spacingRight=4;whiteSpace=wrap;overflow=hidden;rotatable=0;points=[[0,0.5],[1,0.5]];portConstraint=eastwest;align=center;" vertex="1" parent="HDJxrZw4YMF6eCiUrIUL-20">
          <mxGeometry y="26" width="160" height="26" as="geometry" />
        </mxCell>
        <mxCell id="HDJxrZw4YMF6eCiUrIUL-22" value="Faturamento" style="swimlane;html=1;fontStyle=0;childLayout=stackLayout;horizontal=1;startSize=26;fillColor=#e0e0e0;horizontalStack=0;resizeParent=1;resizeLast=0;collapsible=0;marginBottom=0;swimlaneFillColor=#ffffff;align=center;rounded=1;shadow=0;comic=0;labelBackgroundColor=none;strokeWidth=1;fontFamily=Verdana;fontSize=12;arcSize=15;" vertex="1" parent="1">
          <mxGeometry x="30" y="-852" width="160" height="60" as="geometry" />
        </mxCell>
        <mxCell id="HDJxrZw4YMF6eCiUrIUL-23" value="INOVA-19" style="text;html=1;strokeColor=none;fillColor=none;spacingLeft=4;spacingRight=4;whiteSpace=wrap;overflow=hidden;rotatable=0;points=[[0,0.5],[1,0.5]];portConstraint=eastwest;align=center;" vertex="1" parent="HDJxrZw4YMF6eCiUrIUL-22">
          <mxGeometry y="26" width="160" height="26" as="geometry" />
        </mxCell>
        <mxCell id="HDJxrZw4YMF6eCiUrIUL-47" value="Faturamento" style="swimlane;html=1;fontStyle=0;childLayout=stackLayout;horizontal=1;startSize=26;fillColor=#e0e0e0;horizontalStack=0;resizeParent=1;resizeLast=0;collapsible=0;marginBottom=0;swimlaneFillColor=#ffffff;align=center;rounded=1;shadow=0;comic=0;labelBackgroundColor=none;strokeWidth=1;fontFamily=Verdana;fontSize=12" vertex="1" parent="1">
          <mxGeometry x="630" y="-652" width="160" height="60" as="geometry" />
        </mxCell>
        <mxCell id="HDJxrZw4YMF6eCiUrIUL-48" value="INOVA-57" style="text;html=1;strokeColor=none;fillColor=none;spacingLeft=4;spacingRight=4;whiteSpace=wrap;overflow=hidden;rotatable=0;points=[[0,0.5],[1,0.5]];portConstraint=eastwest;align=center;" vertex="1" parent="HDJxrZw4YMF6eCiUrIUL-47">
          <mxGeometry y="26" width="160" height="26" as="geometry" />
        </mxCell>
        <mxCell id="HDJxrZw4YMF6eCiUrIUL-88" value="Faturamento" style="swimlane;html=1;fontStyle=0;childLayout=stackLayout;horizontal=1;startSize=26;fillColor=#e0e0e0;horizontalStack=0;resizeParent=1;resizeLast=0;collapsible=0;marginBottom=0;swimlaneFillColor=#ffffff;align=center;rounded=1;shadow=0;comic=0;labelBackgroundColor=none;strokeWidth=1;fontFamily=Verdana;fontSize=12" vertex="1" parent="1">
          <mxGeometry x="430" y="-852" width="160" height="60" as="geometry" />
        </mxCell>
        <mxCell id="HDJxrZw4YMF6eCiUrIUL-89" value="INOVA-21" style="text;html=1;strokeColor=none;fillColor=none;spacingLeft=4;spacingRight=4;whiteSpace=wrap;overflow=hidden;rotatable=0;points=[[0,0.5],[1,0.5]];portConstraint=eastwest;align=center;" vertex="1" parent="HDJxrZw4YMF6eCiUrIUL-88">
          <mxGeometry y="26" width="160" height="26" as="geometry" />
        </mxCell>
        <mxCell id="HDJxrZw4YMF6eCiUrIUL-90" value="&lt;div style=&quot;text-align: left;&quot;&gt;&lt;span data-darkreader-inline-color=&quot;&quot; data-darkreader-inline-bgcolor=&quot;&quot; style=&quot;background-color: initial; color: rgb(0, 0, 0); --darkreader-inline-bgcolor: initial; --darkreader-inline-color: var(--darkreader-text-000000, #e8e6e3); font-weight: normal;&quot;&gt;&lt;font style=&quot;font-size: 12px;&quot;&gt;Cenário Mínimo&lt;/font&gt;&lt;/span&gt;&lt;/div&gt;&lt;div&gt;&lt;div&gt;iNova - Com Ordem de Execução&lt;/div&gt;&lt;/div&gt;" style="text;html=1;align=center;verticalAlign=middle;resizable=0;points=[];autosize=1;strokeColor=none;fillColor=none;fontFamily=Verdana;fontStyle=1;fontSize=18;" vertex="1" parent="1">
          <mxGeometry x="50" y="1" width="320" height="60" as="geometry" />
        </mxCell>
        <mxCell id="HDJxrZw4YMF6eCiUrIUL-93" value="Faturamento" style="swimlane;html=1;fontStyle=0;childLayout=stackLayout;horizontal=1;startSize=26;fillColor=#e0e0e0;horizontalStack=0;resizeParent=1;resizeLast=0;collapsible=0;marginBottom=0;swimlaneFillColor=#ffffff;align=center;rounded=1;shadow=0;comic=0;labelBackgroundColor=none;strokeWidth=1;fontFamily=Verdana;fontSize=12;arcSize=15;" vertex="1" parent="1">
          <mxGeometry x="430" y="-652" width="160" height="60" as="geometry" />
        </mxCell>
        <mxCell id="HDJxrZw4YMF6eCiUrIUL-94" value="INOVA-50" style="text;html=1;strokeColor=none;fillColor=none;spacingLeft=4;spacingRight=4;whiteSpace=wrap;overflow=hidden;rotatable=0;points=[[0,0.5],[1,0.5]];portConstraint=eastwest;align=center;" vertex="1" parent="HDJxrZw4YMF6eCiUrIUL-93">
          <mxGeometry y="26" width="160" height="26" as="geometry" />
        </mxCell>
        <mxCell id="HDJxrZw4YMF6eCiUrIUL-95" value="Relacionamento" style="swimlane;html=1;fontStyle=0;childLayout=stackLayout;horizontal=1;startSize=26;fillColor=#757575;horizontalStack=0;resizeParent=1;resizeLast=0;collapsible=0;marginBottom=0;swimlaneFillColor=#ffffff;align=center;rounded=1;shadow=0;comic=0;labelBackgroundColor=none;strokeWidth=1;fontFamily=Verdana;fontSize=12;arcSize=15;" vertex="1" parent="1">
          <mxGeometry x="231" y="-652" width="160" height="60" as="geometry" />
        </mxCell>
        <mxCell id="HDJxrZw4YMF6eCiUrIUL-96" value="INOVA-47" style="text;html=1;strokeColor=none;fillColor=none;spacingLeft=4;spacingRight=4;whiteSpace=wrap;overflow=hidden;rotatable=0;points=[[0,0.5],[1,0.5]];portConstraint=eastwest;align=center;" vertex="1" parent="HDJxrZw4YMF6eCiUrIUL-95">
          <mxGeometry y="26" width="160" height="26" as="geometry" />
        </mxCell>
        <mxCell id="HDJxrZw4YMF6eCiUrIUL-111" value="Faturamento" style="swimlane;html=1;fontStyle=0;childLayout=stackLayout;horizontal=1;startSize=26;fillColor=#e0e0e0;horizontalStack=0;resizeParent=1;resizeLast=0;collapsible=0;marginBottom=0;swimlaneFillColor=#ffffff;align=center;rounded=1;shadow=0;comic=0;labelBackgroundColor=none;strokeWidth=1;fontFamily=Verdana;fontSize=12;arcSize=15;" vertex="1" parent="1">
          <mxGeometry x="230" y="-852" width="160" height="60" as="geometry" />
        </mxCell>
        <mxCell id="HDJxrZw4YMF6eCiUrIUL-112" value="INOVA-20" style="text;html=1;strokeColor=none;fillColor=none;spacingLeft=4;spacingRight=4;whiteSpace=wrap;overflow=hidden;rotatable=0;points=[[0,0.5],[1,0.5]];portConstraint=eastwest;align=center;" vertex="1" parent="HDJxrZw4YMF6eCiUrIUL-111">
          <mxGeometry y="26" width="160" height="26" as="geometry" />
        </mxCell>
        <mxCell id="HDJxrZw4YMF6eCiUrIUL-113" value="Faturamento" style="swimlane;html=1;fontStyle=0;childLayout=stackLayout;horizontal=1;startSize=26;fillColor=#e0e0e0;horizontalStack=0;resizeParent=1;resizeLast=0;collapsible=0;marginBottom=0;swimlaneFillColor=#ffffff;align=center;rounded=1;shadow=0;comic=0;labelBackgroundColor=none;strokeWidth=1;fontFamily=Verdana;fontSize=12" vertex="1" parent="1">
          <mxGeometry x="231" y="-751.25" width="160" height="60" as="geometry" />
        </mxCell>
        <mxCell id="HDJxrZw4YMF6eCiUrIUL-114" value="INOVA-36" style="text;html=1;strokeColor=none;fillColor=none;spacingLeft=4;spacingRight=4;whiteSpace=wrap;overflow=hidden;rotatable=0;points=[[0,0.5],[1,0.5]];portConstraint=eastwest;align=center;" vertex="1" parent="HDJxrZw4YMF6eCiUrIUL-113">
          <mxGeometry y="26" width="160" height="26" as="geometry" />
        </mxCell>
        <mxCell id="HDJxrZw4YMF6eCiUrIUL-115" value="Relacionamento" style="swimlane;html=1;fontStyle=0;childLayout=stackLayout;horizontal=1;startSize=26;fillColor=#757575;horizontalStack=0;resizeParent=1;resizeLast=0;collapsible=0;marginBottom=0;swimlaneFillColor=#ffffff;align=center;rounded=1;shadow=0;comic=0;labelBackgroundColor=none;strokeWidth=1;fontFamily=Verdana;fontSize=12;arcSize=15;" vertex="1" parent="1">
          <mxGeometry x="630" y="-751.25" width="160" height="60" as="geometry" />
        </mxCell>
        <mxCell id="HDJxrZw4YMF6eCiUrIUL-116" value="INOVA-41" style="text;html=1;strokeColor=none;fillColor=none;spacingLeft=4;spacingRight=4;whiteSpace=wrap;overflow=hidden;rotatable=0;points=[[0,0.5],[1,0.5]];portConstraint=eastwest;align=center;" vertex="1" parent="HDJxrZw4YMF6eCiUrIUL-115">
          <mxGeometry y="26" width="160" height="26" as="geometry" />
        </mxCell>
        <mxCell id="HDJxrZw4YMF6eCiUrIUL-117" value="Faturamento" style="swimlane;html=1;fontStyle=0;childLayout=stackLayout;horizontal=1;startSize=26;fillColor=#e0e0e0;horizontalStack=0;resizeParent=1;resizeLast=0;collapsible=0;marginBottom=0;swimlaneFillColor=#ffffff;align=center;rounded=1;shadow=0;comic=0;labelBackgroundColor=none;strokeWidth=1;fontFamily=Verdana;fontSize=12;arcSize=15;" vertex="1" parent="1">
          <mxGeometry x="31" y="-652" width="160" height="60" as="geometry" />
        </mxCell>
        <mxCell id="HDJxrZw4YMF6eCiUrIUL-118" value="INOVA-44" style="text;html=1;strokeColor=none;fillColor=none;spacingLeft=4;spacingRight=4;whiteSpace=wrap;overflow=hidden;rotatable=0;points=[[0,0.5],[1,0.5]];portConstraint=eastwest;align=center;" vertex="1" parent="HDJxrZw4YMF6eCiUrIUL-117">
          <mxGeometry y="26" width="160" height="26" as="geometry" />
        </mxCell>
        <mxCell id="HDJxrZw4YMF6eCiUrIUL-119" value="Relacionamento" style="swimlane;html=1;fontStyle=0;childLayout=stackLayout;horizontal=1;startSize=26;fillColor=#757575;horizontalStack=0;resizeParent=1;resizeLast=0;collapsible=0;marginBottom=0;swimlaneFillColor=#ffffff;align=center;rounded=1;shadow=0;comic=0;labelBackgroundColor=none;strokeWidth=1;fontFamily=Verdana;fontSize=12;arcSize=15;" vertex="1" parent="1">
          <mxGeometry x="31" y="-751.25" width="160" height="60" as="geometry" />
        </mxCell>
        <mxCell id="HDJxrZw4YMF6eCiUrIUL-120" value="INOVA-25" style="text;html=1;strokeColor=none;fillColor=none;spacingLeft=4;spacingRight=4;whiteSpace=wrap;overflow=hidden;rotatable=0;points=[[0,0.5],[1,0.5]];portConstraint=eastwest;align=center;" vertex="1" parent="HDJxrZw4YMF6eCiUrIUL-119">
          <mxGeometry y="26" width="160" height="26" as="geometry" />
        </mxCell>
        <mxCell id="HDJxrZw4YMF6eCiUrIUL-121" value="Faturamento" style="swimlane;html=1;fontStyle=0;childLayout=stackLayout;horizontal=1;startSize=26;fillColor=#e0e0e0;horizontalStack=0;resizeParent=1;resizeLast=0;collapsible=0;marginBottom=0;swimlaneFillColor=#ffffff;align=center;rounded=1;shadow=0;comic=0;labelBackgroundColor=none;strokeWidth=1;fontFamily=Verdana;fontSize=12" vertex="1" parent="1">
          <mxGeometry x="430" y="-751.25" width="160" height="60" as="geometry" />
        </mxCell>
        <mxCell id="HDJxrZw4YMF6eCiUrIUL-122" value="INOVA-37" style="text;html=1;strokeColor=none;fillColor=none;spacingLeft=4;spacingRight=4;whiteSpace=wrap;overflow=hidden;rotatable=0;points=[[0,0.5],[1,0.5]];portConstraint=eastwest;align=center;" vertex="1" parent="HDJxrZw4YMF6eCiUrIUL-121">
          <mxGeometry y="26" width="160" height="26" as="geometry" />
        </mxCell>
        <mxCell id="HDJxrZw4YMF6eCiUrIUL-123" value="Faturamento" style="swimlane;html=1;fontStyle=0;childLayout=stackLayout;horizontal=1;startSize=26;fillColor=#e0e0e0;horizontalStack=0;resizeParent=1;resizeLast=0;collapsible=0;marginBottom=0;swimlaneFillColor=#ffffff;align=center;rounded=1;shadow=0;comic=0;labelBackgroundColor=none;strokeWidth=1;fontFamily=Verdana;fontSize=12;arcSize=15;" vertex="1" parent="1">
          <mxGeometry x="31" y="-552" width="160" height="60" as="geometry" />
        </mxCell>
        <mxCell id="HDJxrZw4YMF6eCiUrIUL-124" value="INOVA-58" style="text;html=1;strokeColor=none;fillColor=none;spacingLeft=4;spacingRight=4;whiteSpace=wrap;overflow=hidden;rotatable=0;points=[[0,0.5],[1,0.5]];portConstraint=eastwest;align=center;" vertex="1" parent="HDJxrZw4YMF6eCiUrIUL-123">
          <mxGeometry y="26" width="160" height="26" as="geometry" />
        </mxCell>
        <mxCell id="HDJxrZw4YMF6eCiUrIUL-125" value="Relacionamento" style="swimlane;html=1;fontStyle=0;childLayout=stackLayout;horizontal=1;startSize=26;fillColor=#757575;horizontalStack=0;resizeParent=1;resizeLast=0;collapsible=0;marginBottom=0;swimlaneFillColor=default;align=center;rounded=1;shadow=0;comic=0;labelBackgroundColor=none;strokeWidth=1;fontFamily=Verdana;fontSize=12;swimlaneLine=1;arcSize=15;" vertex="1" parent="1">
          <mxGeometry x="40" y="68" width="160" height="60" as="geometry">
            <mxRectangle x="100" y="-737" width="140" height="30" as="alternateBounds" />
          </mxGeometry>
        </mxCell>
        <mxCell id="HDJxrZw4YMF6eCiUrIUL-126" value="INOVA-8" style="text;html=1;strokeColor=none;fillColor=none;spacingLeft=4;spacingRight=4;whiteSpace=wrap;overflow=hidden;rotatable=0;points=[[0,0.5],[1,0.5]];portConstraint=eastwest;align=center;" vertex="1" parent="HDJxrZw4YMF6eCiUrIUL-125">
          <mxGeometry y="26" width="160" height="26" as="geometry" />
        </mxCell>
        <mxCell id="HDJxrZw4YMF6eCiUrIUL-129" value="Faturamento" style="swimlane;html=1;fontStyle=0;childLayout=stackLayout;horizontal=1;startSize=26;fillColor=#e0e0e0;horizontalStack=0;resizeParent=1;resizeLast=0;collapsible=0;marginBottom=0;swimlaneFillColor=#ffffff;align=center;rounded=1;shadow=0;comic=0;labelBackgroundColor=none;strokeWidth=1;fontFamily=Verdana;fontSize=12;arcSize=15;" vertex="1" parent="1">
          <mxGeometry x="253" y="568" width="160" height="60" as="geometry" />
        </mxCell>
        <mxCell id="HDJxrZw4YMF6eCiUrIUL-130" value="INOVA-61" style="text;html=1;strokeColor=none;fillColor=none;spacingLeft=4;spacingRight=4;whiteSpace=wrap;overflow=hidden;rotatable=0;points=[[0,0.5],[1,0.5]];portConstraint=eastwest;align=center;" vertex="1" parent="HDJxrZw4YMF6eCiUrIUL-129">
          <mxGeometry y="26" width="160" height="26" as="geometry" />
        </mxCell>
        <mxCell id="HDJxrZw4YMF6eCiUrIUL-131" value="Serviços" style="swimlane;html=1;fontStyle=0;childLayout=stackLayout;horizontal=1;startSize=26;fillColor=#000000;horizontalStack=0;resizeParent=1;resizeLast=0;collapsible=0;marginBottom=0;swimlaneFillColor=#ffffff;align=center;rounded=1;shadow=0;comic=0;labelBackgroundColor=none;strokeWidth=1;fontFamily=Verdana;fontSize=12;arcSize=15;fillStyle=solid;fontColor=#FFFFFF;" vertex="1" parent="1">
          <mxGeometry x="40" y="268" width="160" height="60" as="geometry" />
        </mxCell>
        <mxCell id="HDJxrZw4YMF6eCiUrIUL-132" value="INOVA-35" style="text;html=1;strokeColor=none;fillColor=none;spacingLeft=4;spacingRight=4;whiteSpace=wrap;overflow=hidden;rotatable=0;points=[[0,0.5],[1,0.5]];portConstraint=eastwest;align=center;" vertex="1" parent="HDJxrZw4YMF6eCiUrIUL-131">
          <mxGeometry y="26" width="160" height="26" as="geometry" />
        </mxCell>
        <mxCell id="HDJxrZw4YMF6eCiUrIUL-135" value="Relacionamento" style="swimlane;html=1;fontStyle=0;childLayout=stackLayout;horizontal=1;startSize=26;fillColor=#757575;horizontalStack=0;resizeParent=1;resizeLast=0;collapsible=0;marginBottom=0;swimlaneFillColor=default;align=center;rounded=1;shadow=0;comic=0;labelBackgroundColor=none;strokeWidth=1;fontFamily=Verdana;fontSize=12;swimlaneLine=1;arcSize=15;" vertex="1" parent="1">
          <mxGeometry x="40" y="168" width="160" height="60" as="geometry">
            <mxRectangle x="100" y="-737" width="140" height="30" as="alternateBounds" />
          </mxGeometry>
        </mxCell>
        <mxCell id="HDJxrZw4YMF6eCiUrIUL-136" value="INOVA-32" style="text;html=1;strokeColor=none;fillColor=none;spacingLeft=4;spacingRight=4;whiteSpace=wrap;overflow=hidden;rotatable=0;points=[[0,0.5],[1,0.5]];portConstraint=eastwest;align=center;" vertex="1" parent="HDJxrZw4YMF6eCiUrIUL-135">
          <mxGeometry y="26" width="160" height="26" as="geometry" />
        </mxCell>
        <mxCell id="HDJxrZw4YMF6eCiUrIUL-137" value="Relacionamento" style="swimlane;html=1;fontStyle=0;childLayout=stackLayout;horizontal=1;startSize=26;fillColor=#757575;horizontalStack=0;resizeParent=1;resizeLast=0;collapsible=0;marginBottom=0;swimlaneFillColor=default;align=center;rounded=1;shadow=0;comic=0;labelBackgroundColor=none;strokeWidth=1;fontFamily=Verdana;fontSize=12;swimlaneLine=1;arcSize=15;" vertex="1" parent="1">
          <mxGeometry x="40" y="368" width="160" height="60" as="geometry">
            <mxRectangle x="100" y="-737" width="140" height="30" as="alternateBounds" />
          </mxGeometry>
        </mxCell>
        <mxCell id="HDJxrZw4YMF6eCiUrIUL-138" value="INOVA-86&lt;div&gt;&lt;br&gt;&lt;/div&gt;" style="text;html=1;strokeColor=none;fillColor=none;spacingLeft=4;spacingRight=4;whiteSpace=wrap;overflow=hidden;rotatable=0;points=[[0,0.5],[1,0.5]];portConstraint=eastwest;align=center;" vertex="1" parent="HDJxrZw4YMF6eCiUrIUL-137">
          <mxGeometry y="26" width="160" height="26" as="geometry" />
        </mxCell>
        <mxCell id="HDJxrZw4YMF6eCiUrIUL-139" value="Serviços" style="swimlane;html=1;fontStyle=0;childLayout=stackLayout;horizontal=1;startSize=26;fillColor=#000000;horizontalStack=0;resizeParent=1;resizeLast=0;collapsible=0;marginBottom=0;swimlaneFillColor=#ffffff;align=center;rounded=1;shadow=0;comic=0;labelBackgroundColor=none;strokeWidth=1;fontFamily=Verdana;fontSize=12;arcSize=15;fillStyle=solid;fontColor=#FFFFFF;" vertex="1" parent="1">
          <mxGeometry x="40" y="518" width="160" height="60" as="geometry" />
        </mxCell>
        <mxCell id="HDJxrZw4YMF6eCiUrIUL-140" value="INOVA-26" style="text;html=1;strokeColor=none;fillColor=none;spacingLeft=4;spacingRight=4;whiteSpace=wrap;overflow=hidden;rotatable=0;points=[[0,0.5],[1,0.5]];portConstraint=eastwest;align=center;" vertex="1" parent="HDJxrZw4YMF6eCiUrIUL-139">
          <mxGeometry y="26" width="160" height="26" as="geometry" />
        </mxCell>
        <mxCell id="HDJxrZw4YMF6eCiUrIUL-197" value="" style="edgeStyle=orthogonalEdgeStyle;rounded=0;orthogonalLoop=1;jettySize=auto;html=1;" edge="1" parent="1" source="HDJxrZw4YMF6eCiUrIUL-141" target="HDJxrZw4YMF6eCiUrIUL-192">
          <mxGeometry relative="1" as="geometry">
            <Array as="points">
              <mxPoint x="230" y="872" />
              <mxPoint x="230" y="881" />
            </Array>
          </mxGeometry>
        </mxCell>
        <mxCell id="HDJxrZw4YMF6eCiUrIUL-198" style="edgeStyle=orthogonalEdgeStyle;rounded=0;orthogonalLoop=1;jettySize=auto;html=1;entryX=0;entryY=0.5;entryDx=0;entryDy=0;" edge="1" parent="1" source="HDJxrZw4YMF6eCiUrIUL-141" target="HDJxrZw4YMF6eCiUrIUL-190">
          <mxGeometry relative="1" as="geometry">
            <Array as="points">
              <mxPoint x="230" y="872" />
              <mxPoint x="230" y="801" />
            </Array>
          </mxGeometry>
        </mxCell>
        <mxCell id="HDJxrZw4YMF6eCiUrIUL-203" style="edgeStyle=orthogonalEdgeStyle;rounded=0;orthogonalLoop=1;jettySize=auto;html=1;entryX=0;entryY=0.5;entryDx=0;entryDy=0;" edge="1" parent="1" source="HDJxrZw4YMF6eCiUrIUL-141" target="HDJxrZw4YMF6eCiUrIUL-196">
          <mxGeometry relative="1" as="geometry">
            <Array as="points">
              <mxPoint x="230" y="872" />
              <mxPoint x="230" y="1041" />
            </Array>
          </mxGeometry>
        </mxCell>
        <mxCell id="HDJxrZw4YMF6eCiUrIUL-141" value="Relacionamento" style="swimlane;html=1;fontStyle=0;childLayout=stackLayout;horizontal=1;startSize=26;fillColor=#757575;horizontalStack=0;resizeParent=1;resizeLast=0;collapsible=0;marginBottom=0;swimlaneFillColor=default;align=center;rounded=1;shadow=0;comic=0;labelBackgroundColor=none;strokeWidth=1;fontFamily=Verdana;fontSize=12;swimlaneLine=1;arcSize=15;" vertex="1" parent="1">
          <mxGeometry x="40" y="842" width="160" height="60" as="geometry">
            <mxRectangle x="100" y="-737" width="140" height="30" as="alternateBounds" />
          </mxGeometry>
        </mxCell>
        <mxCell id="HDJxrZw4YMF6eCiUrIUL-142" value="INOVA-24" style="text;html=1;strokeColor=none;fillColor=none;spacingLeft=4;spacingRight=4;whiteSpace=wrap;overflow=hidden;rotatable=0;points=[[0,0.5],[1,0.5]];portConstraint=eastwest;align=center;" vertex="1" parent="HDJxrZw4YMF6eCiUrIUL-141">
          <mxGeometry y="26" width="160" height="26" as="geometry" />
        </mxCell>
        <mxCell id="HDJxrZw4YMF6eCiUrIUL-143" value="Relacionamento" style="swimlane;html=1;fontStyle=0;childLayout=stackLayout;horizontal=1;startSize=26;fillColor=#757575;horizontalStack=0;resizeParent=1;resizeLast=0;collapsible=0;marginBottom=0;swimlaneFillColor=default;align=center;rounded=1;shadow=0;comic=0;labelBackgroundColor=none;strokeWidth=1;fontFamily=Verdana;fontSize=12;swimlaneLine=1;arcSize=15;" vertex="1" parent="1">
          <mxGeometry x="253" y="68" width="160" height="60" as="geometry">
            <mxRectangle x="100" y="-737" width="140" height="30" as="alternateBounds" />
          </mxGeometry>
        </mxCell>
        <mxCell id="HDJxrZw4YMF6eCiUrIUL-144" value="INOVA-1" style="text;html=1;strokeColor=none;fillColor=none;spacingLeft=4;spacingRight=4;whiteSpace=wrap;overflow=hidden;rotatable=0;points=[[0,0.5],[1,0.5]];portConstraint=eastwest;align=center;" vertex="1" parent="HDJxrZw4YMF6eCiUrIUL-143">
          <mxGeometry y="26" width="160" height="26" as="geometry" />
        </mxCell>
        <mxCell id="HDJxrZw4YMF6eCiUrIUL-145" value="" style="edgeStyle=orthogonalEdgeStyle;rounded=0;orthogonalLoop=1;jettySize=auto;html=1;" edge="1" parent="1" source="HDJxrZw4YMF6eCiUrIUL-126" target="HDJxrZw4YMF6eCiUrIUL-144">
          <mxGeometry relative="1" as="geometry" />
        </mxCell>
        <mxCell id="HDJxrZw4YMF6eCiUrIUL-146" value="Relacionamento" style="swimlane;html=1;fontStyle=0;childLayout=stackLayout;horizontal=1;startSize=26;fillColor=#757575;horizontalStack=0;resizeParent=1;resizeLast=0;collapsible=0;marginBottom=0;swimlaneFillColor=default;align=center;rounded=1;shadow=0;comic=0;labelBackgroundColor=none;strokeWidth=1;fontFamily=Verdana;fontSize=12;swimlaneLine=1;arcSize=15;" vertex="1" parent="1">
          <mxGeometry x="253" y="68" width="160" height="60" as="geometry">
            <mxRectangle x="100" y="-737" width="140" height="30" as="alternateBounds" />
          </mxGeometry>
        </mxCell>
        <mxCell id="HDJxrZw4YMF6eCiUrIUL-147" value="INOVA-22" style="text;html=1;strokeColor=none;fillColor=none;spacingLeft=4;spacingRight=4;whiteSpace=wrap;overflow=hidden;rotatable=0;points=[[0,0.5],[1,0.5]];portConstraint=eastwest;align=center;" vertex="1" parent="HDJxrZw4YMF6eCiUrIUL-146">
          <mxGeometry y="26" width="160" height="26" as="geometry" />
        </mxCell>
        <mxCell id="HDJxrZw4YMF6eCiUrIUL-148" value="Relacionamento" style="swimlane;html=1;fontStyle=0;childLayout=stackLayout;horizontal=1;startSize=26;fillColor=#757575;horizontalStack=0;resizeParent=1;resizeLast=0;collapsible=0;marginBottom=0;swimlaneFillColor=default;align=center;rounded=1;shadow=0;comic=0;labelBackgroundColor=none;strokeWidth=1;fontFamily=Verdana;fontSize=12;swimlaneLine=1;arcSize=15;" vertex="1" parent="1">
          <mxGeometry x="460" y="68" width="160" height="60" as="geometry">
            <mxRectangle x="100" y="-737" width="140" height="30" as="alternateBounds" />
          </mxGeometry>
        </mxCell>
        <mxCell id="HDJxrZw4YMF6eCiUrIUL-149" value="INOVA-46" style="text;html=1;strokeColor=none;fillColor=none;spacingLeft=4;spacingRight=4;whiteSpace=wrap;overflow=hidden;rotatable=0;points=[[0,0.5],[1,0.5]];portConstraint=eastwest;align=center;" vertex="1" parent="HDJxrZw4YMF6eCiUrIUL-148">
          <mxGeometry y="26" width="160" height="26" as="geometry" />
        </mxCell>
        <mxCell id="HDJxrZw4YMF6eCiUrIUL-152" value="" style="edgeStyle=orthogonalEdgeStyle;rounded=0;orthogonalLoop=1;jettySize=auto;html=1;" edge="1" parent="1" source="HDJxrZw4YMF6eCiUrIUL-147" target="HDJxrZw4YMF6eCiUrIUL-149">
          <mxGeometry relative="1" as="geometry" />
        </mxCell>
        <mxCell id="HDJxrZw4YMF6eCiUrIUL-153" value="Relacionamento" style="swimlane;html=1;fontStyle=0;childLayout=stackLayout;horizontal=1;startSize=26;fillColor=#757575;horizontalStack=0;resizeParent=1;resizeLast=0;collapsible=0;marginBottom=0;swimlaneFillColor=default;align=center;rounded=1;shadow=0;comic=0;labelBackgroundColor=none;strokeWidth=1;fontFamily=Verdana;fontSize=12;swimlaneLine=1;arcSize=15;" vertex="1" parent="1">
          <mxGeometry x="253" y="168" width="160" height="60" as="geometry">
            <mxRectangle x="100" y="-737" width="140" height="30" as="alternateBounds" />
          </mxGeometry>
        </mxCell>
        <mxCell id="HDJxrZw4YMF6eCiUrIUL-154" value="INOVA-33" style="text;html=1;strokeColor=none;fillColor=none;spacingLeft=4;spacingRight=4;whiteSpace=wrap;overflow=hidden;rotatable=0;points=[[0,0.5],[1,0.5]];portConstraint=eastwest;align=center;" vertex="1" parent="HDJxrZw4YMF6eCiUrIUL-153">
          <mxGeometry y="26" width="160" height="26" as="geometry" />
        </mxCell>
        <mxCell id="HDJxrZw4YMF6eCiUrIUL-155" value="" style="edgeStyle=orthogonalEdgeStyle;rounded=0;orthogonalLoop=1;jettySize=auto;html=1;" edge="1" parent="1" source="HDJxrZw4YMF6eCiUrIUL-136" target="HDJxrZw4YMF6eCiUrIUL-154">
          <mxGeometry relative="1" as="geometry" />
        </mxCell>
        <mxCell id="HDJxrZw4YMF6eCiUrIUL-156" value="Relacionamento" style="swimlane;html=1;fontStyle=0;childLayout=stackLayout;horizontal=1;startSize=26;fillColor=#757575;horizontalStack=0;resizeParent=1;resizeLast=0;collapsible=0;marginBottom=0;swimlaneFillColor=default;align=center;rounded=1;shadow=0;comic=0;labelBackgroundColor=none;strokeWidth=1;fontFamily=Verdana;fontSize=12;swimlaneLine=1;arcSize=15;" vertex="1" parent="1">
          <mxGeometry x="460" y="168" width="160" height="60" as="geometry">
            <mxRectangle x="100" y="-737" width="140" height="30" as="alternateBounds" />
          </mxGeometry>
        </mxCell>
        <mxCell id="HDJxrZw4YMF6eCiUrIUL-157" value="INOVA-34" style="text;html=1;strokeColor=none;fillColor=none;spacingLeft=4;spacingRight=4;whiteSpace=wrap;overflow=hidden;rotatable=0;points=[[0,0.5],[1,0.5]];portConstraint=eastwest;align=center;" vertex="1" parent="HDJxrZw4YMF6eCiUrIUL-156">
          <mxGeometry y="26" width="160" height="26" as="geometry" />
        </mxCell>
        <mxCell id="HDJxrZw4YMF6eCiUrIUL-158" value="" style="edgeStyle=orthogonalEdgeStyle;rounded=0;orthogonalLoop=1;jettySize=auto;html=1;" edge="1" parent="1" source="HDJxrZw4YMF6eCiUrIUL-154" target="HDJxrZw4YMF6eCiUrIUL-157">
          <mxGeometry relative="1" as="geometry" />
        </mxCell>
        <mxCell id="HDJxrZw4YMF6eCiUrIUL-159" value="Serviços" style="swimlane;html=1;fontStyle=0;childLayout=stackLayout;horizontal=1;startSize=26;fillColor=#000000;horizontalStack=0;resizeParent=1;resizeLast=0;collapsible=0;marginBottom=0;swimlaneFillColor=#ffffff;align=center;rounded=1;shadow=0;comic=0;labelBackgroundColor=none;strokeWidth=1;fontFamily=Verdana;fontSize=12;arcSize=15;fillStyle=solid;fontColor=#FFFFFF;" vertex="1" parent="1">
          <mxGeometry x="253" y="268" width="160" height="60" as="geometry" />
        </mxCell>
        <mxCell id="HDJxrZw4YMF6eCiUrIUL-160" value="INOVA-45" style="text;html=1;strokeColor=none;fillColor=none;spacingLeft=4;spacingRight=4;whiteSpace=wrap;overflow=hidden;rotatable=0;points=[[0,0.5],[1,0.5]];portConstraint=eastwest;align=center;" vertex="1" parent="HDJxrZw4YMF6eCiUrIUL-159">
          <mxGeometry y="26" width="160" height="26" as="geometry" />
        </mxCell>
        <mxCell id="HDJxrZw4YMF6eCiUrIUL-161" value="Serviços" style="swimlane;html=1;fontStyle=0;childLayout=stackLayout;horizontal=1;startSize=26;fillColor=#000000;horizontalStack=0;resizeParent=1;resizeLast=0;collapsible=0;marginBottom=0;swimlaneFillColor=#ffffff;align=center;rounded=1;shadow=0;comic=0;labelBackgroundColor=none;strokeWidth=1;fontFamily=Verdana;fontSize=12;arcSize=15;fillStyle=solid;fontColor=#FFFFFF;" vertex="1" parent="1">
          <mxGeometry x="460" y="268" width="160" height="60" as="geometry" />
        </mxCell>
        <mxCell id="HDJxrZw4YMF6eCiUrIUL-162" value="INOVA-43" style="text;html=1;strokeColor=none;fillColor=none;spacingLeft=4;spacingRight=4;whiteSpace=wrap;overflow=hidden;rotatable=0;points=[[0,0.5],[1,0.5]];portConstraint=eastwest;align=center;" vertex="1" parent="HDJxrZw4YMF6eCiUrIUL-161">
          <mxGeometry y="26" width="160" height="26" as="geometry" />
        </mxCell>
        <mxCell id="HDJxrZw4YMF6eCiUrIUL-163" value="" style="edgeStyle=orthogonalEdgeStyle;rounded=0;orthogonalLoop=1;jettySize=auto;html=1;" edge="1" parent="1" source="HDJxrZw4YMF6eCiUrIUL-132" target="HDJxrZw4YMF6eCiUrIUL-160">
          <mxGeometry relative="1" as="geometry" />
        </mxCell>
        <mxCell id="HDJxrZw4YMF6eCiUrIUL-164" value="" style="edgeStyle=orthogonalEdgeStyle;rounded=0;orthogonalLoop=1;jettySize=auto;html=1;" edge="1" parent="1" source="HDJxrZw4YMF6eCiUrIUL-160" target="HDJxrZw4YMF6eCiUrIUL-162">
          <mxGeometry relative="1" as="geometry" />
        </mxCell>
        <mxCell id="HDJxrZw4YMF6eCiUrIUL-165" value="Relacionamento" style="swimlane;html=1;fontStyle=0;childLayout=stackLayout;horizontal=1;startSize=26;fillColor=#757575;horizontalStack=0;resizeParent=1;resizeLast=0;collapsible=0;marginBottom=0;swimlaneFillColor=default;align=center;rounded=1;shadow=0;comic=0;labelBackgroundColor=none;strokeWidth=1;fontFamily=Verdana;fontSize=12;swimlaneLine=1;arcSize=15;" vertex="1" parent="1">
          <mxGeometry x="253" y="368" width="160" height="60" as="geometry">
            <mxRectangle x="100" y="-737" width="140" height="30" as="alternateBounds" />
          </mxGeometry>
        </mxCell>
        <mxCell id="HDJxrZw4YMF6eCiUrIUL-166" value="INOVA-62&lt;div&gt;&lt;br&gt;&lt;/div&gt;" style="text;html=1;strokeColor=none;fillColor=none;spacingLeft=4;spacingRight=4;whiteSpace=wrap;overflow=hidden;rotatable=0;points=[[0,0.5],[1,0.5]];portConstraint=eastwest;align=center;" vertex="1" parent="HDJxrZw4YMF6eCiUrIUL-165">
          <mxGeometry y="26" width="160" height="26" as="geometry" />
        </mxCell>
        <mxCell id="HDJxrZw4YMF6eCiUrIUL-167" value="Relacionamento" style="swimlane;html=1;fontStyle=0;childLayout=stackLayout;horizontal=1;startSize=26;fillColor=#757575;horizontalStack=0;resizeParent=1;resizeLast=0;collapsible=0;marginBottom=0;swimlaneFillColor=default;align=center;rounded=1;shadow=0;comic=0;labelBackgroundColor=none;strokeWidth=1;fontFamily=Verdana;fontSize=12;swimlaneLine=1;arcSize=15;" vertex="1" parent="1">
          <mxGeometry x="460" y="368" width="160" height="60" as="geometry">
            <mxRectangle x="100" y="-737" width="140" height="30" as="alternateBounds" />
          </mxGeometry>
        </mxCell>
        <mxCell id="HDJxrZw4YMF6eCiUrIUL-168" value="INOVA-63&lt;div&gt;&lt;br&gt;&lt;/div&gt;" style="text;html=1;strokeColor=none;fillColor=none;spacingLeft=4;spacingRight=4;whiteSpace=wrap;overflow=hidden;rotatable=0;points=[[0,0.5],[1,0.5]];portConstraint=eastwest;align=center;" vertex="1" parent="HDJxrZw4YMF6eCiUrIUL-167">
          <mxGeometry y="26" width="160" height="26" as="geometry" />
        </mxCell>
        <mxCell id="HDJxrZw4YMF6eCiUrIUL-169" value="" style="edgeStyle=orthogonalEdgeStyle;rounded=0;orthogonalLoop=1;jettySize=auto;html=1;" edge="1" parent="1" source="HDJxrZw4YMF6eCiUrIUL-138" target="HDJxrZw4YMF6eCiUrIUL-166">
          <mxGeometry relative="1" as="geometry" />
        </mxCell>
        <mxCell id="HDJxrZw4YMF6eCiUrIUL-170" value="" style="edgeStyle=orthogonalEdgeStyle;rounded=0;orthogonalLoop=1;jettySize=auto;html=1;" edge="1" parent="1" source="HDJxrZw4YMF6eCiUrIUL-166" target="HDJxrZw4YMF6eCiUrIUL-168">
          <mxGeometry relative="1" as="geometry" />
        </mxCell>
        <mxCell id="HDJxrZw4YMF6eCiUrIUL-171" value="Serviços" style="swimlane;html=1;fontStyle=0;childLayout=stackLayout;horizontal=1;startSize=26;fillColor=#000000;horizontalStack=0;resizeParent=1;resizeLast=0;collapsible=0;marginBottom=0;swimlaneFillColor=#ffffff;align=center;rounded=1;shadow=0;comic=0;labelBackgroundColor=none;strokeWidth=1;fontFamily=Verdana;fontSize=12;arcSize=15;fillStyle=solid;fontColor=#FFFFFF;" vertex="1" parent="1">
          <mxGeometry x="253" y="468" width="160" height="60" as="geometry" />
        </mxCell>
        <mxCell id="HDJxrZw4YMF6eCiUrIUL-172" value="INOVA-60" style="text;html=1;strokeColor=none;fillColor=none;spacingLeft=4;spacingRight=4;whiteSpace=wrap;overflow=hidden;rotatable=0;points=[[0,0.5],[1,0.5]];portConstraint=eastwest;align=center;" vertex="1" parent="HDJxrZw4YMF6eCiUrIUL-171">
          <mxGeometry y="26" width="160" height="26" as="geometry" />
        </mxCell>
        <mxCell id="HDJxrZw4YMF6eCiUrIUL-173" value="Faturamento" style="swimlane;html=1;fontStyle=0;childLayout=stackLayout;horizontal=1;startSize=26;fillColor=#e0e0e0;horizontalStack=0;resizeParent=1;resizeLast=0;collapsible=0;marginBottom=0;swimlaneFillColor=#ffffff;align=center;rounded=1;shadow=0;comic=0;labelBackgroundColor=none;strokeWidth=1;fontFamily=Verdana;fontSize=12;arcSize=15;" vertex="1" parent="1">
          <mxGeometry x="460" y="518" width="160" height="60" as="geometry" />
        </mxCell>
        <mxCell id="HDJxrZw4YMF6eCiUrIUL-174" value="INOVA-39" style="text;html=1;strokeColor=none;fillColor=none;spacingLeft=4;spacingRight=4;whiteSpace=wrap;overflow=hidden;rotatable=0;points=[[0,0.5],[1,0.5]];portConstraint=eastwest;align=center;" vertex="1" parent="HDJxrZw4YMF6eCiUrIUL-173">
          <mxGeometry y="26" width="160" height="26" as="geometry" />
        </mxCell>
        <mxCell id="HDJxrZw4YMF6eCiUrIUL-180" value="" style="edgeStyle=orthogonalEdgeStyle;rounded=0;orthogonalLoop=1;jettySize=auto;html=1;" edge="1" parent="1" source="HDJxrZw4YMF6eCiUrIUL-172" target="HDJxrZw4YMF6eCiUrIUL-174">
          <mxGeometry relative="1" as="geometry" />
        </mxCell>
        <mxCell id="HDJxrZw4YMF6eCiUrIUL-181" value="" style="edgeStyle=orthogonalEdgeStyle;rounded=0;orthogonalLoop=1;jettySize=auto;html=1;" edge="1" parent="1" source="HDJxrZw4YMF6eCiUrIUL-130" target="HDJxrZw4YMF6eCiUrIUL-174">
          <mxGeometry relative="1" as="geometry" />
        </mxCell>
        <mxCell id="HDJxrZw4YMF6eCiUrIUL-182" value="" style="edgeStyle=orthogonalEdgeStyle;rounded=0;orthogonalLoop=1;jettySize=auto;html=1;" edge="1" parent="1" source="HDJxrZw4YMF6eCiUrIUL-140" target="HDJxrZw4YMF6eCiUrIUL-172">
          <mxGeometry relative="1" as="geometry" />
        </mxCell>
        <mxCell id="HDJxrZw4YMF6eCiUrIUL-184" style="edgeStyle=orthogonalEdgeStyle;rounded=0;orthogonalLoop=1;jettySize=auto;html=1;entryX=0;entryY=0.5;entryDx=0;entryDy=0;" edge="1" parent="1" source="HDJxrZw4YMF6eCiUrIUL-140" target="HDJxrZw4YMF6eCiUrIUL-130">
          <mxGeometry relative="1" as="geometry" />
        </mxCell>
        <mxCell id="HDJxrZw4YMF6eCiUrIUL-187" value="Faturamento" style="swimlane;html=1;fontStyle=0;childLayout=stackLayout;horizontal=1;startSize=26;fillColor=#e0e0e0;horizontalStack=0;resizeParent=1;resizeLast=0;collapsible=0;marginBottom=0;swimlaneFillColor=#ffffff;align=center;rounded=1;shadow=0;comic=0;labelBackgroundColor=none;strokeWidth=1;fontFamily=Verdana;fontSize=12;arcSize=15;" vertex="1" parent="1">
          <mxGeometry x="253" y="680" width="160" height="60" as="geometry" />
        </mxCell>
        <mxCell id="HDJxrZw4YMF6eCiUrIUL-188" value="INOVA-27" style="text;html=1;strokeColor=none;fillColor=none;spacingLeft=4;spacingRight=4;whiteSpace=wrap;overflow=hidden;rotatable=0;points=[[0,0.5],[1,0.5]];portConstraint=eastwest;align=center;" vertex="1" parent="HDJxrZw4YMF6eCiUrIUL-187">
          <mxGeometry y="26" width="160" height="26" as="geometry" />
        </mxCell>
        <mxCell id="HDJxrZw4YMF6eCiUrIUL-189" value="Faturamento" style="swimlane;html=1;fontStyle=0;childLayout=stackLayout;horizontal=1;startSize=26;fillColor=#e0e0e0;horizontalStack=0;resizeParent=1;resizeLast=0;collapsible=0;marginBottom=0;swimlaneFillColor=#ffffff;align=center;rounded=1;shadow=0;comic=0;labelBackgroundColor=none;strokeWidth=1;fontFamily=Verdana;fontSize=12;arcSize=15;" vertex="1" parent="1">
          <mxGeometry x="253" y="762" width="160" height="60" as="geometry" />
        </mxCell>
        <mxCell id="HDJxrZw4YMF6eCiUrIUL-190" value="INOVA-28" style="text;html=1;strokeColor=none;fillColor=none;spacingLeft=4;spacingRight=4;whiteSpace=wrap;overflow=hidden;rotatable=0;points=[[0,0.5],[1,0.5]];portConstraint=eastwest;align=center;" vertex="1" parent="HDJxrZw4YMF6eCiUrIUL-189">
          <mxGeometry y="26" width="160" height="26" as="geometry" />
        </mxCell>
        <mxCell id="HDJxrZw4YMF6eCiUrIUL-191" value="Faturamento" style="swimlane;html=1;fontStyle=0;childLayout=stackLayout;horizontal=1;startSize=26;fillColor=#e0e0e0;horizontalStack=0;resizeParent=1;resizeLast=0;collapsible=0;marginBottom=0;swimlaneFillColor=#ffffff;align=center;rounded=1;shadow=0;comic=0;labelBackgroundColor=none;strokeWidth=1;fontFamily=Verdana;fontSize=12;arcSize=15;" vertex="1" parent="1">
          <mxGeometry x="253" y="842" width="160" height="60" as="geometry" />
        </mxCell>
        <mxCell id="HDJxrZw4YMF6eCiUrIUL-192" value="INOVA-29" style="text;html=1;strokeColor=none;fillColor=none;spacingLeft=4;spacingRight=4;whiteSpace=wrap;overflow=hidden;rotatable=0;points=[[0,0.5],[1,0.5]];portConstraint=eastwest;align=center;" vertex="1" parent="HDJxrZw4YMF6eCiUrIUL-191">
          <mxGeometry y="26" width="160" height="26" as="geometry" />
        </mxCell>
        <mxCell id="HDJxrZw4YMF6eCiUrIUL-193" value="Faturamento" style="swimlane;html=1;fontStyle=0;childLayout=stackLayout;horizontal=1;startSize=26;fillColor=#e0e0e0;horizontalStack=0;resizeParent=1;resizeLast=0;collapsible=0;marginBottom=0;swimlaneFillColor=#ffffff;align=center;rounded=1;shadow=0;comic=0;labelBackgroundColor=none;strokeWidth=1;fontFamily=Verdana;fontSize=12;arcSize=15;" vertex="1" parent="1">
          <mxGeometry x="253" y="922" width="160" height="60" as="geometry" />
        </mxCell>
        <mxCell id="HDJxrZw4YMF6eCiUrIUL-194" value="INOVA-30" style="text;html=1;strokeColor=none;fillColor=none;spacingLeft=4;spacingRight=4;whiteSpace=wrap;overflow=hidden;rotatable=0;points=[[0,0.5],[1,0.5]];portConstraint=eastwest;align=center;" vertex="1" parent="HDJxrZw4YMF6eCiUrIUL-193">
          <mxGeometry y="26" width="160" height="26" as="geometry" />
        </mxCell>
        <mxCell id="HDJxrZw4YMF6eCiUrIUL-195" value="Faturamento" style="swimlane;html=1;fontStyle=0;childLayout=stackLayout;horizontal=1;startSize=26;fillColor=#e0e0e0;horizontalStack=0;resizeParent=1;resizeLast=0;collapsible=0;marginBottom=0;swimlaneFillColor=#ffffff;align=center;rounded=1;shadow=0;comic=0;labelBackgroundColor=none;strokeWidth=1;fontFamily=Verdana;fontSize=12;arcSize=15;" vertex="1" parent="1">
          <mxGeometry x="253" y="1002" width="160" height="60" as="geometry" />
        </mxCell>
        <mxCell id="HDJxrZw4YMF6eCiUrIUL-196" value="INOVA-31" style="text;html=1;strokeColor=none;fillColor=none;spacingLeft=4;spacingRight=4;whiteSpace=wrap;overflow=hidden;rotatable=0;points=[[0,0.5],[1,0.5]];portConstraint=eastwest;align=center;" vertex="1" parent="HDJxrZw4YMF6eCiUrIUL-195">
          <mxGeometry y="26" width="160" height="26" as="geometry" />
        </mxCell>
        <mxCell id="HDJxrZw4YMF6eCiUrIUL-199" style="edgeStyle=orthogonalEdgeStyle;rounded=0;orthogonalLoop=1;jettySize=auto;html=1;entryX=-0.012;entryY=0.219;entryDx=0;entryDy=0;entryPerimeter=0;" edge="1" parent="1" source="HDJxrZw4YMF6eCiUrIUL-141" target="HDJxrZw4YMF6eCiUrIUL-188">
          <mxGeometry relative="1" as="geometry">
            <Array as="points">
              <mxPoint x="230" y="872" />
              <mxPoint x="230" y="712" />
            </Array>
          </mxGeometry>
        </mxCell>
        <mxCell id="HDJxrZw4YMF6eCiUrIUL-201" style="edgeStyle=orthogonalEdgeStyle;rounded=0;orthogonalLoop=1;jettySize=auto;html=1;entryX=0.01;entryY=0.143;entryDx=0;entryDy=0;entryPerimeter=0;" edge="1" parent="1" source="HDJxrZw4YMF6eCiUrIUL-141" target="HDJxrZw4YMF6eCiUrIUL-194">
          <mxGeometry relative="1" as="geometry">
            <Array as="points">
              <mxPoint x="230" y="872" />
              <mxPoint x="230" y="952" />
            </Array>
          </mxGeometry>
        </mxCell>
        <mxCell id="HDJxrZw4YMF6eCiUrIUL-204" value="Faturamento" style="swimlane;html=1;fontStyle=0;childLayout=stackLayout;horizontal=1;startSize=26;fillColor=#e0e0e0;horizontalStack=0;resizeParent=1;resizeLast=0;collapsible=0;marginBottom=0;swimlaneFillColor=#ffffff;align=center;rounded=1;shadow=0;comic=0;labelBackgroundColor=none;strokeWidth=1;fontFamily=Verdana;fontSize=12;arcSize=15;" vertex="1" parent="1">
          <mxGeometry x="440" y="1002" width="160" height="60" as="geometry" />
        </mxCell>
        <mxCell id="HDJxrZw4YMF6eCiUrIUL-205" value="INOVA-59" style="text;html=1;strokeColor=none;fillColor=none;spacingLeft=4;spacingRight=4;whiteSpace=wrap;overflow=hidden;rotatable=0;points=[[0,0.5],[1,0.5]];portConstraint=eastwest;align=center;" vertex="1" parent="HDJxrZw4YMF6eCiUrIUL-204">
          <mxGeometry y="26" width="160" height="26" as="geometry" />
        </mxCell>
        <mxCell id="HDJxrZw4YMF6eCiUrIUL-211" style="edgeStyle=orthogonalEdgeStyle;rounded=0;orthogonalLoop=1;jettySize=auto;html=1;entryX=0.04;entryY=0.143;entryDx=0;entryDy=0;entryPerimeter=0;" edge="1" parent="1" source="HDJxrZw4YMF6eCiUrIUL-195" target="HDJxrZw4YMF6eCiUrIUL-205">
          <mxGeometry relative="1" as="geometry" />
        </mxCell>
        <mxCell id="HDJxrZw4YMF6eCiUrIUL-212" value="&lt;div style=&quot;text-align: left;&quot;&gt;&lt;span data-darkreader-inline-color=&quot;&quot; data-darkreader-inline-bgcolor=&quot;&quot; style=&quot;background-color: initial; color: rgb(0, 0, 0); --darkreader-inline-bgcolor: initial; --darkreader-inline-color: var(--darkreader-text-000000, #e8e6e3); font-weight: normal;&quot;&gt;&lt;font style=&quot;font-size: 12px;&quot;&gt;Cenário Mínimo&lt;/font&gt;&lt;/span&gt;&lt;/div&gt;&lt;div&gt;&lt;div&gt;iNova - Com Ordem de Execução&lt;/div&gt;&lt;/div&gt;" style="text;html=1;align=center;verticalAlign=middle;resizable=0;points=[];autosize=1;strokeColor=none;fillColor=none;fontFamily=Verdana;fontStyle=1;fontSize=18;" vertex="1" parent="1">
          <mxGeometry x="50" y="1169" width="320" height="60" as="geometry" />
        </mxCell>
        <mxCell id="HDJxrZw4YMF6eCiUrIUL-219" value="" style="edgeStyle=orthogonalEdgeStyle;rounded=0;orthogonalLoop=1;jettySize=auto;html=1;" edge="1" parent="1">
          <mxGeometry relative="1" as="geometry">
            <mxPoint x="200" y="1320.0000000000005" as="sourcePoint" />
            <mxPoint x="252.99999999999977" y="1320.0000000000005" as="targetPoint" />
          </mxGeometry>
        </mxCell>
        <mxCell id="HDJxrZw4YMF6eCiUrIUL-224" value="" style="edgeStyle=orthogonalEdgeStyle;rounded=0;orthogonalLoop=1;jettySize=auto;html=1;" edge="1" parent="1">
          <mxGeometry relative="1" as="geometry">
            <mxPoint x="413" y="1320.0000000000005" as="sourcePoint" />
            <mxPoint x="460" y="1320.0000000000005" as="targetPoint" />
          </mxGeometry>
        </mxCell>
        <mxCell id="HDJxrZw4YMF6eCiUrIUL-231" value="Serviços" style="swimlane;html=1;fontStyle=0;childLayout=stackLayout;horizontal=1;startSize=26;fillColor=#000000;horizontalStack=0;resizeParent=1;resizeLast=0;collapsible=0;marginBottom=0;swimlaneFillColor=#ffffff;align=center;rounded=1;shadow=0;comic=0;labelBackgroundColor=none;strokeWidth=1;fontFamily=Verdana;fontSize=12;arcSize=15;fillStyle=solid;fontColor=#FFFFFF;" vertex="1" parent="1">
          <mxGeometry x="40" y="1281" width="160" height="60" as="geometry" />
        </mxCell>
        <mxCell id="HDJxrZw4YMF6eCiUrIUL-232" value="INOVA-51" style="text;html=1;strokeColor=none;fillColor=none;spacingLeft=4;spacingRight=4;whiteSpace=wrap;overflow=hidden;rotatable=0;points=[[0,0.5],[1,0.5]];portConstraint=eastwest;align=center;" vertex="1" parent="HDJxrZw4YMF6eCiUrIUL-231">
          <mxGeometry y="26" width="160" height="26" as="geometry" />
        </mxCell>
        <mxCell id="HDJxrZw4YMF6eCiUrIUL-235" value="Serviços" style="swimlane;html=1;fontStyle=0;childLayout=stackLayout;horizontal=1;startSize=26;fillColor=#000000;horizontalStack=0;resizeParent=1;resizeLast=0;collapsible=0;marginBottom=0;swimlaneFillColor=#ffffff;align=center;rounded=1;shadow=0;comic=0;labelBackgroundColor=none;strokeWidth=1;fontFamily=Verdana;fontSize=12;arcSize=15;fillStyle=solid;fontColor=#FFFFFF;" vertex="1" parent="1">
          <mxGeometry x="253" y="1281" width="160" height="60" as="geometry" />
        </mxCell>
        <mxCell id="HDJxrZw4YMF6eCiUrIUL-236" value="INOVA-53" style="text;html=1;strokeColor=none;fillColor=none;spacingLeft=4;spacingRight=4;whiteSpace=wrap;overflow=hidden;rotatable=0;points=[[0,0.5],[1,0.5]];portConstraint=eastwest;align=center;" vertex="1" parent="HDJxrZw4YMF6eCiUrIUL-235">
          <mxGeometry y="26" width="160" height="26" as="geometry" />
        </mxCell>
        <mxCell id="HDJxrZw4YMF6eCiUrIUL-237" value="Serviços" style="swimlane;html=1;fontStyle=0;childLayout=stackLayout;horizontal=1;startSize=26;fillColor=#000000;horizontalStack=0;resizeParent=1;resizeLast=0;collapsible=0;marginBottom=0;swimlaneFillColor=#ffffff;align=center;rounded=1;shadow=0;comic=0;labelBackgroundColor=none;strokeWidth=1;fontFamily=Verdana;fontSize=12;arcSize=15;fillStyle=solid;fontColor=#FFFFFF;" vertex="1" parent="1">
          <mxGeometry x="460" y="1281" width="160" height="60" as="geometry" />
        </mxCell>
        <mxCell id="HDJxrZw4YMF6eCiUrIUL-238" value="INOVA-54" style="text;html=1;strokeColor=none;fillColor=none;spacingLeft=4;spacingRight=4;whiteSpace=wrap;overflow=hidden;rotatable=0;points=[[0,0.5],[1,0.5]];portConstraint=eastwest;align=center;" vertex="1" parent="HDJxrZw4YMF6eCiUrIUL-237">
          <mxGeometry y="26" width="160" height="26" as="geometry" />
        </mxCell>
        <mxCell id="HDJxrZw4YMF6eCiUrIUL-239" value="Serviços" style="swimlane;html=1;fontStyle=0;childLayout=stackLayout;horizontal=1;startSize=26;fillColor=#000000;horizontalStack=0;resizeParent=1;resizeLast=0;collapsible=0;marginBottom=0;swimlaneFillColor=#ffffff;align=center;rounded=1;shadow=0;comic=0;labelBackgroundColor=none;strokeWidth=1;fontFamily=Verdana;fontSize=12;arcSize=15;fillStyle=solid;fontColor=#FFFFFF;" vertex="1" parent="1">
          <mxGeometry x="650" y="1281" width="160" height="60" as="geometry" />
        </mxCell>
        <mxCell id="HDJxrZw4YMF6eCiUrIUL-240" value="INOVA-52" style="text;html=1;strokeColor=none;fillColor=none;spacingLeft=4;spacingRight=4;whiteSpace=wrap;overflow=hidden;rotatable=0;points=[[0,0.5],[1,0.5]];portConstraint=eastwest;align=center;" vertex="1" parent="HDJxrZw4YMF6eCiUrIUL-239">
          <mxGeometry y="26" width="160" height="26" as="geometry" />
        </mxCell>
        <mxCell id="HDJxrZw4YMF6eCiUrIUL-243" value="" style="rhombus;whiteSpace=wrap;html=1;fillColor=none;" vertex="1" parent="1">
          <mxGeometry x="250" y="1267" width="170" height="90" as="geometry" />
        </mxCell>
        <mxCell id="HDJxrZw4YMF6eCiUrIUL-244" value="" style="edgeStyle=orthogonalEdgeStyle;rounded=0;orthogonalLoop=1;jettySize=auto;html=1;" edge="1" parent="1">
          <mxGeometry relative="1" as="geometry">
            <mxPoint x="200" y="1574.0000000000005" as="sourcePoint" />
            <mxPoint x="252.99999999999977" y="1574.0000000000005" as="targetPoint" />
          </mxGeometry>
        </mxCell>
        <mxCell id="HDJxrZw4YMF6eCiUrIUL-245" value="" style="edgeStyle=orthogonalEdgeStyle;rounded=0;orthogonalLoop=1;jettySize=auto;html=1;" edge="1" parent="1">
          <mxGeometry relative="1" as="geometry">
            <mxPoint x="413" y="1574.0000000000005" as="sourcePoint" />
            <mxPoint x="460" y="1574.0000000000005" as="targetPoint" />
          </mxGeometry>
        </mxCell>
        <mxCell id="HDJxrZw4YMF6eCiUrIUL-246" value="Serviços" style="swimlane;html=1;fontStyle=0;childLayout=stackLayout;horizontal=1;startSize=26;fillColor=#000000;horizontalStack=0;resizeParent=1;resizeLast=0;collapsible=0;marginBottom=0;swimlaneFillColor=#ffffff;align=center;rounded=1;shadow=0;comic=0;labelBackgroundColor=none;strokeWidth=1;fontFamily=Verdana;fontSize=12;arcSize=15;fillStyle=solid;fontColor=#FFFFFF;" vertex="1" parent="1">
          <mxGeometry x="40" y="1535" width="160" height="60" as="geometry" />
        </mxCell>
        <mxCell id="HDJxrZw4YMF6eCiUrIUL-247" value="INOVA-88" style="text;html=1;strokeColor=none;fillColor=none;spacingLeft=4;spacingRight=4;whiteSpace=wrap;overflow=hidden;rotatable=0;points=[[0,0.5],[1,0.5]];portConstraint=eastwest;align=center;" vertex="1" parent="HDJxrZw4YMF6eCiUrIUL-246">
          <mxGeometry y="26" width="160" height="26" as="geometry" />
        </mxCell>
        <mxCell id="HDJxrZw4YMF6eCiUrIUL-248" value="Serviços" style="swimlane;html=1;fontStyle=0;childLayout=stackLayout;horizontal=1;startSize=26;fillColor=#000000;horizontalStack=0;resizeParent=1;resizeLast=0;collapsible=0;marginBottom=0;swimlaneFillColor=#ffffff;align=center;rounded=1;shadow=0;comic=0;labelBackgroundColor=none;strokeWidth=1;fontFamily=Verdana;fontSize=12;arcSize=15;fillStyle=solid;fontColor=#FFFFFF;" vertex="1" parent="1">
          <mxGeometry x="648" y="1663" width="160" height="60" as="geometry" />
        </mxCell>
        <mxCell id="HDJxrZw4YMF6eCiUrIUL-249" value="INOVA-82" style="text;html=1;strokeColor=none;fillColor=none;spacingLeft=4;spacingRight=4;whiteSpace=wrap;overflow=hidden;rotatable=0;points=[[0,0.5],[1,0.5]];portConstraint=eastwest;align=center;" vertex="1" parent="HDJxrZw4YMF6eCiUrIUL-248">
          <mxGeometry y="26" width="160" height="26" as="geometry" />
        </mxCell>
        <mxCell id="HDJxrZw4YMF6eCiUrIUL-250" value="Serviços" style="swimlane;html=1;fontStyle=0;childLayout=stackLayout;horizontal=1;startSize=26;fillColor=#000000;horizontalStack=0;resizeParent=1;resizeLast=0;collapsible=0;marginBottom=0;swimlaneFillColor=#ffffff;align=center;rounded=1;shadow=0;comic=0;labelBackgroundColor=none;strokeWidth=1;fontFamily=Verdana;fontSize=12;arcSize=15;fillStyle=solid;fontColor=#FFFFFF;" vertex="1" parent="1">
          <mxGeometry x="254" y="1535" width="160" height="60" as="geometry" />
        </mxCell>
        <mxCell id="HDJxrZw4YMF6eCiUrIUL-251" value="INOVA-86" style="text;html=1;strokeColor=none;fillColor=none;spacingLeft=4;spacingRight=4;whiteSpace=wrap;overflow=hidden;rotatable=0;points=[[0,0.5],[1,0.5]];portConstraint=eastwest;align=center;" vertex="1" parent="HDJxrZw4YMF6eCiUrIUL-250">
          <mxGeometry y="26" width="160" height="26" as="geometry" />
        </mxCell>
        <mxCell id="HDJxrZw4YMF6eCiUrIUL-252" value="Serviços" style="swimlane;html=1;fontStyle=0;childLayout=stackLayout;horizontal=1;startSize=26;fillColor=#000000;horizontalStack=0;resizeParent=1;resizeLast=0;collapsible=0;marginBottom=0;swimlaneFillColor=#ffffff;align=center;rounded=1;shadow=0;comic=0;labelBackgroundColor=none;strokeWidth=1;fontFamily=Verdana;fontSize=12;arcSize=15;fillStyle=solid;fontColor=#FFFFFF;" vertex="1" parent="1">
          <mxGeometry x="460" y="1535" width="160" height="60" as="geometry" />
        </mxCell>
        <mxCell id="HDJxrZw4YMF6eCiUrIUL-253" value="INOVA-80" style="text;html=1;strokeColor=none;fillColor=none;spacingLeft=4;spacingRight=4;whiteSpace=wrap;overflow=hidden;rotatable=0;points=[[0,0.5],[1,0.5]];portConstraint=eastwest;align=center;" vertex="1" parent="HDJxrZw4YMF6eCiUrIUL-252">
          <mxGeometry y="26" width="160" height="26" as="geometry" />
        </mxCell>
        <mxCell id="HDJxrZw4YMF6eCiUrIUL-275" value="" style="edgeStyle=orthogonalEdgeStyle;rounded=0;orthogonalLoop=1;jettySize=auto;html=1;" edge="1" parent="1" source="HDJxrZw4YMF6eCiUrIUL-254" target="HDJxrZw4YMF6eCiUrIUL-263">
          <mxGeometry relative="1" as="geometry">
            <Array as="points">
              <mxPoint x="630" y="1703" />
              <mxPoint x="630" y="1703" />
            </Array>
          </mxGeometry>
        </mxCell>
        <mxCell id="HDJxrZw4YMF6eCiUrIUL-254" value="" style="rhombus;whiteSpace=wrap;html=1;fillColor=none;" vertex="1" parent="1">
          <mxGeometry x="645" y="1649" width="170" height="90" as="geometry" />
        </mxCell>
        <mxCell id="HDJxrZw4YMF6eCiUrIUL-257" value="" style="rounded=1;whiteSpace=wrap;html=1;" vertex="1" parent="1">
          <mxGeometry x="50" y="1420" width="319" height="60" as="geometry" />
        </mxCell>
        <mxCell id="HDJxrZw4YMF6eCiUrIUL-258" value="&lt;div style=&quot;text-align: left;&quot;&gt;&lt;span style=&quot;background-color: initial; text-align: center;&quot;&gt;Cenários abaixo apenas em CAAN&lt;/span&gt;&lt;/div&gt;" style="text;html=1;align=center;verticalAlign=middle;resizable=0;points=[];autosize=1;strokeColor=none;fillColor=none;fontFamily=Verdana;fontStyle=1;fontSize=15;" vertex="1" parent="1">
          <mxGeometry x="59" y="1435" width="280" height="30" as="geometry" />
        </mxCell>
        <mxCell id="HDJxrZw4YMF6eCiUrIUL-273" value="" style="edgeStyle=orthogonalEdgeStyle;rounded=0;orthogonalLoop=1;jettySize=auto;html=1;" edge="1" parent="1" source="HDJxrZw4YMF6eCiUrIUL-259" target="HDJxrZw4YMF6eCiUrIUL-254">
          <mxGeometry relative="1" as="geometry" />
        </mxCell>
        <mxCell id="HDJxrZw4YMF6eCiUrIUL-259" value="Serviços" style="swimlane;html=1;fontStyle=0;childLayout=stackLayout;horizontal=1;startSize=26;fillColor=#000000;horizontalStack=0;resizeParent=1;resizeLast=0;collapsible=0;marginBottom=0;swimlaneFillColor=#ffffff;align=center;rounded=1;shadow=0;comic=0;labelBackgroundColor=none;strokeWidth=1;fontFamily=Verdana;fontSize=12;arcSize=15;fillStyle=solid;fontColor=#FFFFFF;" vertex="1" parent="1">
          <mxGeometry x="650" y="1535" width="160" height="60" as="geometry" />
        </mxCell>
        <mxCell id="HDJxrZw4YMF6eCiUrIUL-260" value="INOVA-81" style="text;html=1;strokeColor=none;fillColor=none;spacingLeft=4;spacingRight=4;whiteSpace=wrap;overflow=hidden;rotatable=0;points=[[0,0.5],[1,0.5]];portConstraint=eastwest;align=center;" vertex="1" parent="HDJxrZw4YMF6eCiUrIUL-259">
          <mxGeometry y="26" width="160" height="26" as="geometry" />
        </mxCell>
        <mxCell id="HDJxrZw4YMF6eCiUrIUL-262" value="Serviços" style="swimlane;html=1;fontStyle=0;childLayout=stackLayout;horizontal=1;startSize=26;fillColor=#000000;horizontalStack=0;resizeParent=1;resizeLast=0;collapsible=0;marginBottom=0;swimlaneFillColor=#ffffff;align=center;rounded=1;shadow=0;comic=0;labelBackgroundColor=none;strokeWidth=1;fontFamily=Verdana;fontSize=12;arcSize=15;fillStyle=solid;fontColor=#FFFFFF;" vertex="1" parent="1">
          <mxGeometry x="430" y="1664" width="160" height="60" as="geometry" />
        </mxCell>
        <mxCell id="HDJxrZw4YMF6eCiUrIUL-263" value="INOVA-83" style="text;html=1;strokeColor=none;fillColor=none;spacingLeft=4;spacingRight=4;whiteSpace=wrap;overflow=hidden;rotatable=0;points=[[0,0.5],[1,0.5]];portConstraint=eastwest;align=center;" vertex="1" parent="HDJxrZw4YMF6eCiUrIUL-262">
          <mxGeometry y="26" width="160" height="26" as="geometry" />
        </mxCell>
        <mxCell id="HDJxrZw4YMF6eCiUrIUL-270" style="edgeStyle=orthogonalEdgeStyle;rounded=0;orthogonalLoop=1;jettySize=auto;html=1;entryX=0;entryY=0.5;entryDx=0;entryDy=0;" edge="1" parent="1" source="HDJxrZw4YMF6eCiUrIUL-253" target="HDJxrZw4YMF6eCiUrIUL-260">
          <mxGeometry relative="1" as="geometry" />
        </mxCell>
        <mxCell id="HDJxrZw4YMF6eCiUrIUL-276" value="" style="swimlane;html=1;fontStyle=0;childLayout=stackLayout;horizontal=1;startSize=26;fillColor=#000000;horizontalStack=0;resizeParent=1;resizeLast=0;collapsible=0;marginBottom=0;swimlaneFillColor=#ffffff;align=center;rounded=1;shadow=0;comic=0;labelBackgroundColor=none;strokeWidth=1;fontFamily=Verdana;fontSize=12;arcSize=15;fillStyle=solid;fontColor=#FFFFFF;" vertex="1" parent="1">
          <mxGeometry x="68" y="1948" width="160" height="60" as="geometry" />
        </mxCell>
        <mxCell id="HDJxrZw4YMF6eCiUrIUL-278" value="" style="rhombus;whiteSpace=wrap;html=1;fillColor=none;" vertex="1" parent="1">
          <mxGeometry x="68" y="1928" width="160" height="100" as="geometry" />
        </mxCell>
        <mxCell id="HDJxrZw4YMF6eCiUrIUL-279" value="" style="rounded=1;whiteSpace=wrap;html=1;" vertex="1" parent="1">
          <mxGeometry x="30" y="1848" width="240" height="42" as="geometry" />
        </mxCell>
        <mxCell id="HDJxrZw4YMF6eCiUrIUL-280" value="&lt;div style=&quot;text-align: left;&quot;&gt;&lt;span style=&quot;background-color: initial; text-align: center;&quot;&gt;OBS.: &lt;font style=&quot;font-size: 10px;&quot;&gt;cenário para realizar no Geocall&lt;/font&gt;&lt;/span&gt;&lt;/div&gt;" style="text;html=1;align=center;verticalAlign=middle;resizable=0;points=[];autosize=1;strokeColor=none;fillColor=none;fontFamily=Verdana;fontStyle=1;fontSize=15;" vertex="1" parent="1">
          <mxGeometry x="34" y="1848" width="230" height="30" as="geometry" />
        </mxCell>
      </root>
    </mxGraphModel>
  </diagram>
</mxfile>
